{
  "accessors": [
    {
      "bufferView": 2,
      "componentType": 5126,
      "count": 4325,
      "max": [
        39.9931640625,
        39.9931640625,
        -0.27803429961204529
      ],
      "min": [
        -39.9931640625,
        -39.9931640625,
        -37.574043273925781
      ],
      "type": "VEC3"
    },
    {
      "bufferView": 2,
      "byteOffset": 51900,
      "componentType": 5126,
      "count": 4325,
      "max": [
        0.99999988079071045,
        0.99999988079071045,
        0.93220794200897217
      ],
      "min": [
        -0.99999982118606567,
        -0.99999988079071045,
        -1
      ],
      "type": "VEC3"
    },
    {
      "bufferView": 3,
      "componentType": 5126,
      "count": 4325,
      "max": [
        1,
        1,
        0.38300180435180664,
        1
      ],
      "min": [
        -0.99999719858169556,
        -1,
        -0.38300260901451111,
        -1
      ],
      "type": "VEC4"
    },
    {
      "bufferView": 0,
      "componentType": 5125,
      "count": 25344,
      "max": [
        4324
      ],
      "min": [
        0
      ],
      "type": "SCALAR"
    },
    {
      "bufferView": 2,
      "byteOffset": 103800,
      "componentType": 5126,
      "count": 678,
      "max": [
        15.940805435180664,
        13.831613540649414,
        2.3463997840881348
      ],
      "min": [
        -26.615924835205078,
        -21.009382247924805,
        -2.3463997840881348
      ],
      "type": "VEC3"
    },
    {
      "bufferView": 2,
      "byteOffset": 111936,
      "componentType": 5126,
      "count": 678,
      "max": [
        0.99985146522521973,
        0.99999850988388062,
        1
      ],
      "min": [
        -0.99985140562057495,
        -0.99999845027923584,
        -1
      ],
      "type": "VEC3"
    },
    {
      "bufferView": 0,
      "byteOffset": 101376,
      "componentType": 5125,
      "count": 3771,
      "max": [
        677
      ],
      "min": [
        0
      ],
      "type": "SCALAR"
    },
    {
      "bufferView": 2,
      "byteOffset": 120072,
      "componentType": 5126,
      "count": 631,
      "max": [
        52.567085266113281,
        52.560928344726562,
        5.9284648895263672
      ],
      "min": [
        -52.567085266113281,
        -52.560928344726562,
        0
      ],
      "type": "VEC3"
    },
    {
      "bufferView": 2,
      "byteOffset": 127644,
      "componentType": 5126,
      "count": 631,
      "max": [
        0.98533821105957031,
        0.98531299829483032,
        1
      ],
      "min": [
        -0.98533809185028076,
        -0.98531299829483032,
        -1
      ],
      "type": "VEC3"
    },
    {
      "bufferView": 3,
      "byteOffset": 69200,
      "componentType": 5126,
      "count": 631,
      "max": [
        1,
        1,
        0.034975942224264145,
        1
      ],
      "min": [
        -1,
        -1,
        -0.080077491700649261,
        -1
      ],
      "type": "VEC4"
    },
    {
      "bufferView": 0,
      "byteOffset": 116460,
      "componentType": 5125,
      "count": 3672,
      "max": [
        630
      ],
      "min": [
        0
      ],
      "type": "SCALAR"
    },
    {
      "bufferView": 2,
      "byteOffset": 135216,
      "componentType": 5126,
      "count": 89,
      "max": [
        38.235488891601562,
        38.235488891601562,
        -3.7971305847167969
      ],
      "min": [
        -38.235488891601562,
        -38.235488891601562,
        -3.7971315383911133
      ],
      "type": "VEC3"
    },
    {
      "bufferView": 2,
      "byteOffset": 136284,
      "componentType": 5126,
      "count": 89,
      "max": [
        2.0686792367996532e-07,
        3.1204814376906143e-07,
        1
      ],
      "min": [
        -2.0686887580723123e-07,
        -8.1916773808643484e-08,
        1
      ],
      "type": "VEC3"
    },
    {
      "bufferView": 3,
      "byteOffset": 79296,
      "componentType": 5126,
      "count": 89,
      "max": [
        1,
        5.2956831495976076e-05,
        2.0687173218902899e-07,
        1
      ],
      "min": [
        1,
        -4.1435072489548475e-05,
        -2.0687122059825924e-07,
        1
      ],
      "type": "VEC4"
    },
    {
      "bufferView": 1,
      "componentType": 5126,
      "count": 89,
      "max": [
        0.69459140300750732,
        0.72422969341278076
      ],
      "min": [
        0.29549604654312134,
        0.19274681806564331
      ],
      "type": "VEC2"
    },
    {
      "bufferView": 0,
      "byteOffset": 131148,
      "componentType": 5125,
      "count": 90,
      "max": [
        88
      ],
      "min": [
        0
      ],
      "type": "SCALAR"
    }
  ],
  "asset": {
    "extras": {
      "author": "Rosnandie Yikie (https://sketchfab.com/rosnandie.yikie)",
      "license": "CC-BY-4.0 (http://creativecommons.org/licenses/by/4.0/)",
      "source": "https://sketchfab.com/models/963a9e5d288c42509886c5efd4fedd3c",
      "title": "Coffee"
    },
    "generator": "Sketchfab-3.20.7",
    "version": "2.0"
  },
  "bufferViews": [
    {
      "buffer": 0,
      "byteLength": 131508,
      "byteOffset": 0,
      "name": "floatBufferViews",
      "target": 34963
    },
    {
      "buffer": 0,
      "byteLength": 712,
      "byteOffset": 131508,
      "byteStride": 8,
      "name": "floatBufferViews",
      "target": 34962
    },
    {
      "buffer": 0,
      "byteLength": 137352,
      "byteOffset": 132220,
      "byteStride": 12,
      "name": "floatBufferViews",
      "target": 34962
    },
    {
      "buffer": 0,
      "byteLength": 80720,
      "byteOffset": 269572,
      "byteStride": 16,
      "name": "floatBufferViews",
      "target": 34962
    }
  ],
  "buffers": [
    {
      "byteLength": 350292,
      "uri": "scene.bin"
    }
  ],
  "images": [
    {
      "uri": "textures/Material_26_baseColor.jpeg"
    }
  ],
  "materials": [
    {
      "doubleSided": true,
      "emissiveFactor": [
        0,
        0,
        0
      ],
      "name": "Material_28",
      "pbrMetallicRoughness": {
        "baseColorFactor": [
          0.58799999999999997,
          0.58799999999999997,
          0.58799999999999997,
          1
        ],
        "metallicFactor": 0,
        "roughnessFactor": 0
      }
    },
    {
      "doubleSided": true,
      "emissiveFactor": [
        0,
        0,
        0
      ],
      "name": "Material_29",
      "pbrMetallicRoughness": {
        "baseColorFactor": [
          0.58799999999999997,
          0.58799999999999997,
          0.58799999999999997,
          1
        ],
        "metallicFactor": 0,
        "roughnessFactor": 0
      }
    },
    {
      "doubleSided": true,
      "emissiveFactor": [
        0,
        0,
        0
      ],
      "name": "Material_30",
      "pbrMetallicRoughness": {
        "baseColorFactor": [
          0.58799999999999997,
          0.58799999999999997,
          0.58799999999999997,
          1
        ],
        "metallicFactor": 0,
        "roughnessFactor": 0
      }
    },
    {
      "doubleSided": true,
      "emissiveFactor": [
        0,
        0,
        0
      ],
      "name": "Material_26",
      "pbrMetallicRoughness": {
        "baseColorFactor": [
          1,
          1,
          1,
          1
        ],
        "baseColorTexture": {
          "index": 0,
          "texCoord": 0
        },
        "metallicFactor": 0,
        "roughnessFactor": 1
      }
    }
  ],
  "meshes": [
    {
      "name": "Sphere001_Material #28_0",
      "primitives": [
        {
          "attributes": {
            "NORMAL": 1,
            "POSITION": 0,
            "TANGENT": 2
          },
          "indices": 3,
          "material": 0,
          "mode": 4
        }
      ]
    },
    {
      "name": "Line001_Material #29_0",
      "primitives": [
        {
          "attributes": {
            "NORMAL": 5,
            "POSITION": 4
          },
          "indices": 6,
          "material": 1,
          "mode": 4
        }
      ]
    },
    {
      "name": "Cylinder001_Material #30_0",
      "primitives": [
        {
          "attributes": {
            "NORMAL": 8,
            "POSITION": 7,
            "TANGENT": 9
          },
          "indices": 10,
          "material": 2,
          "mode": 4
        }
      ]
    },
    {
      "name": "Object001_Material #26_0",
      "primitives": [
        {
          "attributes": {
            "NORMAL": 12,
            "POSITION": 11,
            "TANGENT": 13,
            "TEXCOORD_0": 14
          },
          "indices": 15,
          "material": 3,
          "mode": 4
        }
      ]
    }
  ],
  "nodes": [
    {
      "children": [
        1
      ],
      "name": "RootNode (gltf orientation matrix)",
      "rotation": [
        -0.70710678118654746,
        -0,
        -0,
        0.70710678118654757
      ]
    },
    {
      "children": [
        2
      ],
      "matrix": [
        0.84386628866195679,
        0.53655350208282471,
        0,
        0,
        -0.53655350208282471,
        0.84386628866195679,
        0,
        0,
        0,
        0,
        1,
        0,
        2.8510456085205078,
        0.51183772087097168,
        0,
        1
      ],
      "name": "RootNode (model correction matrix)"
    },
    {
      "children": [
        3
      ],
      "matrix": [
        1,
        0,
        0,
        0,
        0,
        0,
        1,
        0,
        0,
        -1,
        0,
        0,
        0,
        0,
        0,
        1
      ],
      "name": "3be3161c87db470ead8104307ac9192e.fbx"
    },
    {
      "children": [
        4,
        6,
        8,
        10
      ],
      "name": "RootNode"
    },
    {
      "children": [
        5
      ],
      "matrix": [
        1,
        0,
        0,
        0,
        0,
        2.2204460492503131e-16,
        -1,
        0,
        0,
        1,
        2.2204460492503131e-16,
        0,
        0.33519113063812256,
        38.269615173339844,
        -6.5411262512207031,
        1
      ],
      "name": "Sphere001"
    },
    {
      "mesh": 0,
      "name": "Sphere001_Material #28_0"
    },
    {
      "children": [
        7
      ],
      "matrix": [
        1.6292068460987963e-07,
        0,
        0.99999999999998668,
        0,
        -4.3711388225504991e-08,
        0.999999999999999,
        7.1214892959639279e-15,
        0,
        -0.99999999999998579,
        -4.3711388225505573e-08,
        1.6292068460987963e-07,
        0,
        -9.5358723228855524e-07,
        21.822357177734375,
        33.971836090087891,
        1
      ],
      "name": "Line001"
    },
    {
      "mesh": 1,
      "name": "Line001_Material #29_0"
    },
    {
      "children": [
        9
      ],
      "matrix": [
        1,
        0,
        0,
        0,
        0,
        2.2204460492503131e-16,
        -1,
        0,
        0,
        1,
        2.2204460492503131e-16,
        0,
        0.54609584808349609,
        0,
        -7.6612052917480469,
        1
      ],
      "name": "Cylinder001"
    },
    {
      "mesh": 2,
      "name": "Cylinder001_Material #30_0"
    },
    {
      "children": [
        11
      ],
      "matrix": [
        1,
        0,
        0,
        0,
        0,
        2.2204460492503131e-16,
        -1,
        0,
        0,
        1,
        2.2204460492503131e-16,
        0,
        0.33519113063812256,
        38.269615173339844,
        -6.5411262512207031,
        1
      ],
      "name": "Object001"
    },
    {
      "mesh": 3,
      "name": "Object001_Material #26_0"
    }
  ],
  "samplers": [
    {
      "magFilter": 9729,
      "minFilter": 9987,
      "wrapS": 10497,
      "wrapT": 10497
    }
  ],
  "scene": 0,
  "scenes": [
    {
      "name": "OSG_Scene",
      "nodes": [
        0
      ]
    }
  ],
  "textures": [
    {
      "sampler": 0,
      "source": 0
    }
  ]
}

